<?xml version="1.0" encoding="utf-8"?>
<!-- Generator: Adobe Illustrator 15.0.1, SVG Export Plug-In . SVG Version: 6.00 Build 0)  -->
<!DOCTYPE svg PUBLIC "-//W3C//DTD SVG 1.1//EN" "http://www.w3.org/Graphics/SVG/1.1/DTD/svg11.dtd">
<svg version="1.1" id="Layer_1" xmlns="http://www.w3.org/2000/svg" xmlns:xlink="http://www.w3.org/1999/xlink" x="0px" y="0px"
	 width="512px" height="324px" viewBox="0 0 512 324" enable-background="new 0 0 512 324" xml:space="preserve" fill="white">
<g>
	<path fill-rule="evenodd" clip-rule="evenodd" d="M176.646,162.237c-15.769-9.102-26.177-24.486-27.929-46.4
		c-0.917-11.473,1.972-21.931,6.14-30.196c4.046-8.022,10.197-15.013,18.62-18.78c4.802-2.148,10.034-3.7,16.045-3.315
		c17.146,1.099,24.563,13.899,26.741,29.276c3.29,23.233-3.127,44.715-8.518,62.604c5.913-1.001,10.473-4.141,14.658-7.182
		c2.241-1.629,4.271-3.063,5.943-4.971c1.706-1.947,2.904-4.011,4.358-6.444c5.255-8.8,11.027-17.91,16.44-26.882
		c5.241-8.686,10.245-18.176,15.451-27.803c2.684-4.96,4.896-9.876,7.328-14.362c2.437-4.488,6.771-7.891,11.885-9.942
		c12.988-5.21,25.233,2.293,28.524,11.968c1.074,3.153,1.231,6.497,0.594,9.391c-0.585,2.66-2.383,5.013-3.564,7.181
		c-2.547,4.674-4.848,10.396-5.943,15.466c-1.417,6.564-1.521,13.518-0.594,19.517c0.937,6.055,3.242,11.192,4.953,16.387
		c3.61,10.972,6.992,21.879,5.743,36.274c6.004-7.815,12.841-16.104,19.016-24.673c0.416-0.579,0.963-1.216,1.387-1.842
		c2.023-2.982,2.957-8.374,4.357-11.968c3.673-9.418,8.167-17.907,13.471-26.146c6.644-10.322,15.452-20.831,24.957-28.54
		c9.539-7.734,21.109-15.081,35.854-18.412c8.286-1.873,16.662-2.237,24.164,0.185c6.464,2.085,12.301,5.606,16.838,10.126
		c8.695,8.665,14.416,22.504,12.479,39.403c-1.747,15.234-8.775,26.362-18.621,34.431c-5.037,4.129-10.223,8.363-18.42,8.839
		c-11.827,0.685-21.299-7.521-21.988-18.414c-0.27-4.257,0.879-7.851,2.575-10.495c3.116-4.854,10.301-8.171,13.669-13.073
		c2.833-4.123,4.49-10.575,4.357-16.203c-0.148-6.28-3.236-10.782-7.924-12.705c-6.33-2.597-13.812-1.951-19.61,0
		c-5.535,1.862-10.49,5.146-14.062,8.285c-7.847,6.894-13.522,16.027-17.433,26.514c-3.968,10.646-5.713,25.329-3.564,37.562
		c2.045,11.647,7.498,22.962,15.847,27.988c9.556,5.751,27.025,5.673,39.615,3.498c12.314-2.129,23.099-6.93,33.08-11.97
		c17.032-8.596,32.047-19.772,46.549-31.485c1.798-1.452,4.123-4.492,7.132-4.051c1.168,0.171,2.183,1.221,2.575,2.578
		c0.43,1.492,0.065,2.791-0.595,4.051c-1.199,2.289-3.008,4.519-4.16,6.076c-3.098,4.187-5.756,7.658-8.914,11.416
		c-12.822,15.264-25.849,27.896-42.587,39.403c-12.346,8.486-25.57,15.666-42.588,19.7c-5.771,1.37-12.062,2.59-18.619,2.395
		c-13.342-0.397-23.667-3.488-32.685-9.022c-16.76-10.289-27.441-27.787-27.334-53.396c-1.164,1.118-2.186,2.386-3.169,3.684
		c-6.93,9.138-14.211,18.688-21.195,27.986c-1.1,1.463-1.989,2.744-3.17,4.051c-3.36,3.718-6.75,6.984-11.29,9.942
		c-5.745,3.743-12.572,6.432-21.194,7.549c-19.482,2.525-33.727-4.454-42.389-14.546c-8.265-9.625-12.06-27.875-6.933-43.821
		c-2.722,1.34-5.485,3.019-8.716,4.42c-3.132,1.355-6.504,2.465-10.3,3.129c-5.196,12.686-11.735,23.893-20.006,34.246
		c-8.156,10.212-18.191,18.543-32.881,22.281c-17.382,4.422-34.162-1.374-43.182-9.76c-9.62-8.94-15.354-20.989-17.233-36.641
		c-5.342,9.786-10.088,19.348-17.629,27.067c-7.341,7.514-16.832,14.148-29.91,16.019c-15.829,2.264-26.682-3.199-33.476-11.601
		c-6.877-8.504-8.829-21.034-7.726-35.903c0.988-13.315,3.863-25.377,7.528-36.825c5.341-16.691,11.667-32.794,19.214-47.873
		c2.477-4.949,4.814-10.032,7.527-14.914c2.405-4.328,5.255-9.739,9.508-13.073c4.085-3.204,11.656-5.422,18.223-3.499
		c7.26,2.126,11.363,6.697,13.469,12.336c1.271,3.403,1.897,7.013,0.99,10.679c-0.726,2.939-2.489,5.931-3.961,8.654
		c-6.013,11.115-11.681,21.403-17.828,32.958c-5.581,10.49-11.723,22.477-16.044,34.616c-1.897,5.329-4.227,12.014-6.141,19.149
		c-1.647,6.145-3.474,15.526-0.594,21.175c1.842,3.612,9.455,4.205,14.856,2.946c4.242-0.99,7.916-2.921,10.499-4.604
		c2.939-1.917,5.902-4.162,8.319-6.629c2.525-2.579,5.182-5.119,7.131-7.733c4.057-5.438,8.256-12.005,11.885-17.676
		c2.124-3.319,3.439-5.771,3.764-10.862c1.387-21.813,6.685-42.074,11.884-60.946c2.079-7.544,4.271-15.395,7.131-22.095
		c1.561-3.656,3.164-6.501,5.943-8.838c2.709-2.279,6.727-4.23,11.291-4.603c11.829-0.968,20.247,6.432,22.185,15.282
		c1.455,6.645-1.954,13.808-4.16,19.148c-8.227,19.92-15.381,41.28-18.422,65.917c-1.715,13.894-2.426,35.693,10.301,39.036
		c8.598,2.258,15.219-2.235,19.808-5.893C164.649,181.316,171.206,171.2,176.646,162.237z M192.492,119.703
		c1.152-5.34,1.989-11.625,2.575-18.597c0.263-3.13,0.322-6.781-0.199-9.943c-0.376-2.287-1.487-6.559-2.773-7.917
		c-1.308-1.381-4.589-2.561-7.923-2.209c-4.278,0.45-7.518,3.666-9.903,6.444c-4.122,4.8-7.351,10.965-8.914,17.492
		c-4.325,18.049,2.782,35.459,12.677,44.006c1.157,1,2.253,2.268,3.764,2.577C186.325,141.761,189.873,131.839,192.492,119.703z
		 M253.897,118.599c-3.906,7.341-7.941,14.735-11.291,22.279c-4.715,10.622-10.659,25.905-6.14,40.324
		c1.26,4.019,3.164,8.025,5.745,11.048c4.667,5.465,13.618,8.087,23.176,6.445c8.032-1.383,15.323-5.542,18.619-11.786
		c3.643-6.897,3.444-16.445,1.387-24.12c-1.959-7.307-5.554-14.283-8.519-20.07c-6.656-12.996-11.532-26.353-10.696-46.031
		c-0.011-0.112-0.029-0.218-0.197-0.185C262.052,103.644,257.945,110.989,253.897,118.599z"/>
	<path fill-rule="evenodd" clip-rule="evenodd" d="M188.926,247.671c-0.396,0-0.792,0-1.188,0c-0.806-0.507-0.334-1.41-0.396-1.842
		c-0.201-1.407-0.968-2.983-2.179-3.499c-3.518-1.492-7.891,0.953-6.933,5.893c0.47,2.419,2.751,3.883,4.358,4.971
		c1.693,1.147,3.854,2.104,5.348,3.868c4.322,5.094,2.179,12.192-4.159,12.704c-3.967,0.32-6.958-1.615-7.527-5.155
		c-0.102-0.632-0.686-1.675,0.198-2.211c2.017-0.166,1.226,1.856,1.782,3.13c1.604,3.672,9.277,3.412,10.103-0.919
		c1.484-7.799-7.87-9.131-10.894-13.81c-2.519-3.896-0.451-9.65,3.961-10.312C186.428,239.737,189.879,242.793,188.926,247.671z"/>
	<path fill-rule="evenodd" clip-rule="evenodd" d="M274.102,240.673c4.864-0.761,7.587,2.187,7.726,6.813
		c0.085,2.833,0,4.516,0,7.18c0,5.075,0.806,10.438-1.387,13.074c-1.636,1.964-6.747,3.034-9.508,0.735
		c-2.452-2.039-1.981-7.937-1.981-11.783C268.951,249.588,267.358,241.729,274.102,240.673z M270.537,253.747
		c-0.002,5.378-0.774,11.448,1.385,13.44c1.345,1.241,4.983,1.325,6.538,0.185c2.024-1.489,1.585-6.386,1.583-10.864
		c0-3.067,0.787-9.81-0.396-12.151c-1-1.986-3.985-2.441-5.744-2.026C269.799,243.299,270.537,247.801,270.537,253.747z"/>
	<path fill-rule="evenodd" clip-rule="evenodd" d="M295.099,240.673c2.741-0.429,5.818,0.838,6.933,2.763
		c1.175,2.032,0.792,9.919,0.792,13.441c0,5,0.372,9.819-2.377,11.783c-2.081,1.488-7.278,1.569-9.31-0.92
		c-2.467-3.025-1.471-13.288-1.387-18.412C289.825,244.808,290.379,241.412,295.099,240.673z M291.532,256.323
		c0,4.261-0.417,9.527,1.586,11.049c1.636,1.244,5.229,0.958,6.535-0.185c2.231-1.948,1.387-8.399,1.387-12.704
		c0-4.344,0.868-10.548-2.376-11.969c-1.104-0.482-3.072-0.343-3.764-0.185C290.301,243.389,291.532,249.601,291.532,256.323z"/>
	<path fill-rule="evenodd" clip-rule="evenodd" d="M320.85,253.378c1.585,1.342,2.836,2.469,3.169,4.972
		c0.742,5.592-0.716,10.654-5.546,11.231c-4.913,0.588-8.414-2.24-8.123-7.366c0.463,0,0.926,0,1.387,0
		c0.769,0.595,0.302,1.614,0.595,2.58c0.932,3.077,4.873,4.19,7.726,2.577c3.627-2.052,2.932-11.564-0.595-12.706
		c-1.337-0.432-2.966,0.116-4.556-0.367c0-0.308,0-0.614,0-0.921c0.503-0.802,1.868-0.211,2.973-0.369
		c1.614-0.229,3.327-1.158,3.96-2.577c1.276-2.854,0.433-6.801-1.782-7.917c-3.621-1.823-8.167,0.741-6.933,5.156
		c-0.595,0-1.188,0-1.783,0c-0.067-3.226,0.541-5.324,2.377-6.445c2.848-1.736,7.356-0.846,9.112,1.474
		C325.325,245.995,324.248,251.552,320.85,253.378z"/>
	<path fill-rule="evenodd" clip-rule="evenodd" d="M249.341,267.74c3.302,0.551,7.989-0.184,11.291,0.368
		c0.549,1.769-1.046,1.385-2.178,1.473c-3.238,0.252-7.833-0.189-10.895,0c-0.286-4.583,2.015-7.907,4.555-11.047
		c2.617-3.234,5.792-5.677,6.934-8.839c1.053-2.916,0.319-6.205-1.98-7.181c-2.455-1.042-5.643,0.089-6.339,1.473
		c-0.549,1.091-0.122,2.417-0.594,3.868c-0.397,0-0.793,0-1.188,0c-0.878-0.541-0.297-1.691-0.198-2.396
		c0.133-0.935,0.242-1.789,0.594-2.393c2.092-3.587,9.087-2.719,10.895,0c3.647,5.485-1.985,10.873-5.15,14.545
		C252.289,260.857,249.709,263.856,249.341,267.74z"/>
	<path fill-rule="evenodd" clip-rule="evenodd" d="M167.336,241.41c0.4,1.332-1.208,0.86-1.981,0.92
		c-2.382,0.185-5.907-0.138-8.319,0c-0.462,4.112-0.066,9.021-0.198,13.441c1.612,0.521,4.507-0.061,6.735,0.185
		c0.599,0.065,1.731-0.28,1.386,0.736c0.368,1.053-1.017,0.692-1.584,0.736c-1.895,0.147-4.627-0.11-6.537,0
		c0,3.437,0,6.875,0,10.312c2.239,0.485,5.755-0.019,8.715,0.184c0.618,0.042,2.274-0.424,1.981,0.736
		c0.094,1.254-1.825,0.715-2.575,0.738c-2.938,0.084-6.925-0.066-9.903,0c0-9.515,0-19.027,0-28.542
		c2.492,0.069,6.665-0.089,9.706,0C165.542,240.88,167.146,240.395,167.336,241.41z"/>
	<path fill-rule="evenodd" clip-rule="evenodd" d="M211.31,241.41c0.303,1.43-1.657,0.904-2.773,0.92
		c-1.324,0.02-2.786-0.016-3.764,0c-1.029,7.986,0.686,17.418-0.198,25.963c-0.024,0.231,0.322,1.319-0.594,1.105
		c-1.64,0.191-0.979-1.942-0.99-2.58c-0.131-7.646,0.099-16.73,0-24.488c-2.311,0-4.622,0-6.933,0
		c0.121-0.439-0.249-1.336,0.198-1.474c4.212,0.338,9.322-0.443,13.865,0C210.402,240.885,211.567,240.582,211.31,241.41z"/>
	<path fill-rule="evenodd" clip-rule="evenodd" d="M216.262,267.74c0.726,0,1.453,0,2.179,0c0,0.613,0,1.227,0,1.841
		c-0.726,0-1.453,0-2.179,0C216.262,268.967,216.262,268.354,216.262,267.74z"/>
	<g>
	</g>
</g>
</svg>
